<?xml version="1.0" encoding="UTF-8" standalone="no"?>
<svg width="89px" height="89px" viewBox="0 0 89 89" version="1.1" xmlns="http://www.w3.org/2000/svg" xmlns:xlink="http://www.w3.org/1999/xlink">
    <!-- Generator: Sketch 3.8.2 (29753) - http://www.bohemiancoding.com/sketch -->
    <title>logo</title>
    <desc>Created with Sketch.</desc>
    <defs></defs>
    <g id="Page-1" stroke="none" stroke-width="1" fill="none" fill-rule="evenodd">
        <g id="logo" transform="translate(0.000000, -0.110000)">
            <path d="M0.4634,44.7748 C0.4634,68.9588 20.0674,88.5628 44.2514,88.5628 C68.4344,88.5628 88.0384,68.9588 88.0384,44.7748 C88.0384,20.5918 68.4344,0.9868 44.2514,0.9868 C20.0674,0.9868 0.4634,20.5918 0.4634,44.7748" id="Fill-190" fill="#0072BB"></path>
            <path d="M21.8542,15.7917 C22.2062,15.6737 22.6332,15.9237 22.9882,16.3967 L31.9042,12.2167 C32.0132,11.8117 32.2272,11.4487 32.5162,11.1617 L32.5192,2.4837 C33.6122,2.1617 34.7192,1.9287 35.8452,1.6907 L35.8452,11.1817 C36.1212,11.4617 36.3262,11.8117 36.4352,12.2017 L45.3812,16.3967 C45.7362,15.9237 46.1632,15.6737 46.5152,15.7917 C47.0622,15.9777 47.2172,16.9787 46.8622,18.0297 C46.5072,19.0807 45.7762,19.7847 45.2312,19.6007 C45.2212,19.5967 45.0872,19.5577 45.0322,19.5327 L35.2222,14.9327 C34.9052,15.0917 34.5492,15.1837 34.1702,15.1837 C33.7982,15.1837 33.4472,15.0947 33.1332,14.9397 L23.3362,19.5327 C23.2822,19.5577 23.1492,19.5967 23.1382,19.6007 C22.5922,19.7847 21.8622,19.0807 21.5072,18.0297 C21.1522,16.9787 21.3072,15.9777 21.8542,15.7917" id="Fill-192" fill="#FEFEFE"></path>
            <path d="M71.8709,48.0213 L45.3289,48.0213 C44.8119,48.0213 44.1999,47.7993 44.0759,47.0553 C43.9729,46.4363 44.5219,45.8153 44.5219,45.8153 C44.5219,45.8153 48.1209,41.6333 48.6359,41.0353 C49.5879,39.9303 51.2239,40.0303 51.2239,40.0303 L87.8759,40.0263 C88.0399,41.3033 88.1179,42.5883 88.1179,44.0573 C88.1179,45.2833 88.1579,46.7823 88.0059,48.0423 C83.2959,48.0423 78.1169,48.0213 72.6079,48.0213 L71.8709,48.0213 Z" id="Fill-194" fill="#FEFEFE"></path>
            <path d="M56.3307,65.662 C56.3877,66.041 56.7527,66.35 57.1187,66.35 L63.1607,66.35 C63.5577,66.35 63.8987,66.041 63.9557,65.662 L66.3387,49.727 C66.3957,49.347 66.1337,49.037 65.7517,49.037 L54.5327,49.037 C54.1507,49.037 53.8907,49.347 53.9477,49.727 L56.3307,65.662 Z" id="Fill-196" fill="#FEFEFE"></path>
            <path d="M64.3168,20.1093 C64.3168,22.4003 62.4578,24.2613 60.1648,24.2613 C57.8728,24.2613 56.0138,22.4003 56.0138,20.1093 C56.0138,17.8173 57.8728,15.9583 60.1648,15.9583 C62.4578,15.9583 64.3168,17.8173 64.3168,20.1093" id="Fill-198" fill="#FEFEFE"></path>
            <path d="M13.239,59.9175 C13.239,55.7395 15.455,52.0715 18.772,50.0215 L18.772,52.6885 L18.772,52.6995 L18.772,56.4035 C18.772,56.9235 19.268,57.3405 19.881,57.3405 L34.718,57.3405 L36.483,60.3935 C36.232,66.5855 31.118,71.5475 24.865,71.5475 C18.454,71.5475 13.239,66.3305 13.239,59.9175 M9.911,59.9175 C9.911,68.1655 16.619,74.8755 24.865,74.8755 C31.416,74.8755 36.992,70.6415 39.012,64.7675 L41.292,68.7125 C41.546,69.1105 42.111,69.2025 42.555,68.9185 L45.755,66.8725 L45.755,66.8715 L47.668,65.6485 C48.112,65.3645 48.265,64.8135 48.011,64.4155 L47.442,63.5255 C47.188,63.1285 46.623,63.0365 46.18,63.3205 L45.257,63.9105 L38.384,52.1365 C38.262,51.9155 37.984,51.7595 37.699,51.7655 C37.648,51.7665 37.393,51.7665 37.145,51.7665 C37.129,51.7655 37.113,51.7635 37.096,51.7635 L25.943,51.7635 L25.943,48.3365 L35.302,48.3365 C35.913,48.3365 36.406,47.8425 36.406,47.2325 L36.406,45.8655 C36.406,45.2565 35.913,44.7635 35.302,44.7635 L25.943,44.7635 L25.943,38.4075 C25.943,37.7985 25.406,37.3055 24.74,37.3055 L19.977,37.3055 C19.314,37.3055 18.772,37.7985 18.772,38.4075 L18.772,46.2655 C13.556,48.6035 9.911,53.8415 9.911,59.9175" id="Fill-200" fill="#FEFEFE"></path>
            <path d="M43.3107,33.9675 L50.2837,27.7395 L52.6947,25.5145 C52.8147,25.3935 52.9627,25.3115 53.2727,25.3095 C53.4197,25.3125 66.8227,25.3125 66.9707,25.3095 C67.2797,25.3115 67.4277,25.3935 67.5497,25.5145 L69.9597,27.7395 L76.9327,33.9675 C77.3357,34.3285 77.3637,34.9555 76.9947,35.3685 L75.6397,36.8865 C75.2707,37.2995 74.6437,37.3425 74.2407,36.9815 L67.1347,30.6345 L66.3367,30.0115 L66.3367,38.1675 C66.3367,38.6345 65.9897,39.0115 65.5597,39.0115 L54.6837,39.0115 C54.2537,39.0115 53.9067,38.6345 53.9067,38.1675 L53.9067,30.0115 L53.1087,30.6345 L46.0027,36.9815 C45.5987,37.3425 44.9727,37.2995 44.6037,36.8865 L43.2487,35.3685 C42.8797,34.9555 42.9067,34.3285 43.3107,33.9675" id="Fill-202" fill="#FEFEFE"></path>
            <path d="M26.479,32.2924 C26.479,34.5834 24.619,36.4424 22.327,36.4424 C20.035,36.4424 18.175,34.5834 18.175,32.2924 C18.175,29.9984 20.035,28.1414 22.327,28.1414 C24.619,28.1414 26.479,29.9984 26.479,32.2924" id="Fill-204" fill="#FEFEFE"></path>
        </g>
    </g>
</svg>